<?xml version="1.0" standalone="no"?>
<!DOCTYPE svg PUBLIC "-//W3C//DTD SVG 20010904//EN"
 "http://www.w3.org/TR/2001/REC-SVG-20010904/DTD/svg10.dtd">
<svg version="1.0" xmlns="http://www.w3.org/2000/svg"
 width="920.000000pt" height="544.000000pt" viewBox="0 0 920.000000 544.000000"
 preserveAspectRatio="xMidYMid meet">

<g transform="translate(0.000000,544.000000) scale(0.100000,-0.100000)"
fill="#000000" stroke="none">
<path d="M4400 5430 c-539 -37 -1068 -244 -1500 -588 -120 -96 -322 -298 -421
-422 -309 -386 -508 -854 -575 -1350 -23 -171 -23 -540 0 -705 87 -619 366
-1175 802 -1595 429 -414 937 -660 1539 -746 146 -21 530 -24 680 -5 501 63
984 265 1375 577 128 101 364 344 462 474 236 313 386 629 482 1015 90 366 98
788 20 1175 -211 1050 -1026 1881 -2074 2114 -231 51 -543 73 -790 56z m540
-136 c1069 -137 1960 -950 2194 -2004 44 -201 60 -347 59 -575 0 -226 -14
-360 -59 -562 -228 -1024 -1065 -1820 -2096 -1992 -267 -45 -510 -49 -778 -15
-886 114 -1658 690 -2031 1514 -230 510 -286 1110 -155 1663 109 460 354 896
692 1233 575 573 1366 841 2174 738z"/>
<path d="M5587 3846 c-33 -81 -32 -80 -121 -36 -43 22 -92 40 -108 40 -58 0
-171 -40 -205 -73 -37 -35 -40 -50 -17 -106 14 -35 21 -41 82 -61 117 -39 285
-110 344 -146 121 -73 130 -135 25 -166 -23 -7 -48 -20 -55 -30 -9 -12 -26
-18 -51 -18 l-38 0 -69 156 c-78 180 -64 172 -198 110 -68 -31 -73 -36 -69
-60 l5 -26 -73 34 c-125 57 -228 80 -359 80 -222 0 -399 -74 -579 -240 -67
-62 -74 -66 -138 -75 -47 -7 -95 -6 -153 1 -164 22 -262 72 -390 201 -84 85
-88 87 -160 103 -90 21 -398 41 -475 31 -53 -6 -56 -8 -41 -24 20 -21 20 -31
3 -31 -16 0 -47 -31 -47 -47 0 -15 45 -31 110 -39 52 -6 60 -11 135 -83 166
-159 322 -255 444 -273 74 -11 174 -52 335 -136 l109 -57 78 -135 c51 -87 79
-146 79 -165 0 -30 -2 -31 -61 -44 -34 -7 -62 -11 -63 -9 -2 2 -10 23 -20 46
-63 162 -223 310 -399 369 -72 24 -98 27 -207 27 -109 0 -135 -3 -206 -27
-259 -86 -435 -316 -451 -587 -18 -311 168 -579 467 -672 62 -19 96 -23 195
-22 104 0 130 4 200 28 44 15 107 44 140 64 77 47 182 153 219 223 16 30 31
56 32 58 2 2 41 -24 86 -59 l83 -63 515 7 c496 7 672 14 685 27 3 4 -4 42 -17
85 -32 112 -33 308 -2 374 24 52 63 101 105 130 l28 21 -14 -40 c-25 -72 -37
-195 -26 -274 24 -171 83 -288 204 -404 250 -239 637 -244 891 -12 158 145
224 306 214 526 -9 182 -72 318 -208 446 -108 103 -279 175 -415 177 -38 1
-39 1 -20 16 11 8 27 19 35 24 13 8 12 12 -7 31 l-22 22 49 23 c65 30 73 58
34 117 -34 52 -143 197 -263 347 -89 113 -91 116 -85 157 9 62 -3 109 -38 148
-16 19 -33 35 -37 35 -3 0 -14 -20 -24 -44z m-2242 -1091 c87 -23 170 -72 226
-133 45 -50 89 -118 89 -140 0 -4 -105 -30 -232 -57 -128 -26 -236 -51 -239
-54 -3 -3 1 -44 9 -90 l15 -83 71 6 c39 3 147 8 240 12 l168 7 -7 -24 c-3 -13
-22 -56 -41 -96 -82 -171 -292 -279 -476 -245 -250 46 -421 282 -380 523 18
103 55 173 131 250 121 120 272 164 426 124z m2694 0 c136 -33 242 -119 308
-251 37 -77 38 -80 38 -194 0 -114 -1 -117 -38 -194 -135 -273 -465 -348 -703
-159 -104 83 -164 212 -164 353 0 298 270 513 559 445z m-1987 -564 l24 -49
-94 -6 c-52 -4 -96 -6 -98 -3 -2 2 -1 24 2 50 6 45 7 46 48 50 97 9 92 11 118
-42z"/>
</g>
</svg>
